<svg width="22" height="14" viewBox="0 0 22 14" fill="none" xmlns="http://www.w3.org/2000/svg">
<path d="M13 4.81597V3.42832C13.55 3.23785 14.1125 3.09501 14.6875 2.99978C15.2625 2.90455 15.8667 2.85693 16.5 2.85693C16.9333 2.85693 17.3583 2.88414 17.775 2.93856C18.1917 2.99297 18.6 3.061 19 3.14262V4.44865C18.6 4.32621 18.1958 4.23438 17.7875 4.17316C17.3792 4.11194 16.95 4.08133 16.5 4.08133C15.8667 4.08133 15.2583 4.14595 14.675 4.27519C14.0917 4.40443 13.5333 4.58469 13 4.81597ZM13 9.30543V7.91778C13.55 7.72732 14.1125 7.58447 14.6875 7.48924C15.2625 7.39401 15.8667 7.34639 16.5 7.34639C16.9333 7.34639 17.3583 7.3736 17.775 7.42802C18.1917 7.48244 18.6 7.55046 19 7.63209V8.93811C18.6 8.81567 18.1958 8.72384 17.7875 8.66262C17.3792 8.6014 16.95 8.57079 16.5 8.57079C15.8667 8.57079 15.2583 8.63201 14.675 8.75445C14.0917 8.87689 13.5333 9.06055 13 9.30543ZM13 7.0607V5.67305C13.55 5.48259 14.1125 5.33974 14.6875 5.24451C15.2625 5.14928 15.8667 5.10166 16.5 5.10166C16.9333 5.10166 17.3583 5.12887 17.775 5.18329C18.1917 5.23771 18.6 5.30573 19 5.38735V6.69338C18.6 6.57094 18.1958 6.47911 17.7875 6.41789C17.3792 6.35667 16.95 6.32606 16.5 6.32606C15.8667 6.32606 15.2583 6.39068 14.675 6.51992C14.0917 6.64917 13.5333 6.82942 13 7.0607ZM12 10.6523C12.7333 10.3666 13.4708 10.1523 14.2125 10.0095C14.9542 9.86661 15.7167 9.79519 16.5 9.79519C17.1 9.79519 17.6875 9.836 18.2625 9.91763C18.8375 9.99926 19.4167 10.1217 20 10.285V2.20392C19.45 2.01346 18.8792 1.87061 18.2875 1.77538C17.6958 1.68015 17.1 1.63253 16.5 1.63253C15.7167 1.63253 14.9417 1.71416 14.175 1.87741C13.4083 2.04066 12.6833 2.28554 12 2.61205V10.6523ZM11 13.0603C10.2 12.5433 9.33333 12.142 8.4 11.8563C7.46667 11.5706 6.5 11.4277 5.5 11.4277C4.8 11.4277 4.1125 11.5025 3.4375 11.6522C2.7625 11.8018 2.11667 12.0127 1.5 12.2848C1.15 12.4345 0.8125 12.4276 0.4875 12.2644C0.1625 12.1011 0 11.8631 0 11.5502V1.71416C0 1.56451 0.0458333 1.42166 0.1375 1.28562C0.229167 1.14957 0.366667 1.04754 0.55 0.979519C1.33333 0.666617 2.1375 0.425138 2.9625 0.255083C3.7875 0.0850277 4.63333 0 5.5 0C6.46667 0 7.4125 0.102033 8.3375 0.3061C9.2625 0.510166 10.15 0.816266 11 1.2244C11.85 0.816266 12.7375 0.510166 13.6625 0.3061C14.5875 0.102033 15.5333 0 16.5 0C17.3667 0 18.2125 0.0850277 19.0375 0.255083C19.8625 0.425138 20.6667 0.666617 21.45 0.979519C21.6333 1.04754 21.7708 1.14957 21.8625 1.28562C21.9542 1.42166 22 1.56451 22 1.71416V11.5502C22 11.8631 21.8375 12.1011 21.5125 12.2644C21.1875 12.4276 20.85 12.4345 20.5 12.2848C19.8833 12.0127 19.2375 11.8018 18.5625 11.6522C17.8875 11.5025 17.2 11.4277 16.5 11.4277C15.5 11.4277 14.5333 11.5706 13.6 11.8563C12.6667 12.142 11.8 12.5433 11 13.0603Z" fill="#3240CB"/>
</svg>
