<svg width="21" height="10" viewBox="0 0 21 10" fill="none" xmlns="http://www.w3.org/2000/svg">
<path d="M15.8 8.184C16.2667 8.184 16.7208 8.09558 17.1625 7.91872C17.6042 7.74186 18.0083 7.49018 18.375 7.16367V5.00057C17.9917 5.04138 17.6375 5.089 17.3125 5.14341C16.9875 5.19783 16.6833 5.25905 16.4 5.32707C15.65 5.51754 15.0875 5.75561 14.7125 6.04131C14.3375 6.327 14.15 6.66031 14.15 7.04123C14.15 7.39495 14.3 7.67384 14.6 7.8779C14.9 8.08197 15.3 8.184 15.8 8.184ZM15.225 9.57166C14.275 9.57166 13.525 9.35058 12.975 8.90844C12.425 8.4663 12.15 7.8643 12.15 7.10245C12.15 6.39502 12.425 5.81683 12.975 5.36789C13.525 4.91894 14.4083 4.55842 15.625 4.28633C16.0083 4.20471 16.4292 4.12988 16.8875 4.06186C17.3458 3.99384 17.8417 3.93262 18.375 3.8782C18.3417 3.23879 18.1583 2.77284 17.825 2.48035C17.4917 2.18785 16.975 2.0416 16.275 2.0416C15.8417 2.0416 15.4125 2.10622 14.9875 2.23547C14.5625 2.36471 14.0167 2.59258 13.35 2.91909L12.55 1.77632C13.1 1.43621 13.7458 1.16072 14.4875 0.949848C15.2292 0.738979 15.9833 0.633545 16.75 0.633545C17.9333 0.633545 18.8333 0.932842 19.45 1.53144C20.0667 2.13003 20.375 3.00072 20.375 4.14349V9.388H18.7L18.55 8.4697C18.0833 8.80981 17.5708 9.0785 17.0125 9.27576C16.4542 9.47302 15.8583 9.57166 15.225 9.57166ZM0.875 9.79613C0.691667 9.60567 0.533333 9.44922 0.4 9.32678C0.266667 9.20434 0.133333 9.10911 0 9.04108C1.26667 8.59214 2.28333 8.01395 3.05 7.30652C3.81667 6.59909 4.36667 5.63317 4.7 4.40877H0.35V3.44966H4.9C4.96667 3.04153 5.01667 2.60619 5.05 2.14364C5.08333 1.68109 5.1 1.19133 5.1 0.674358H6.35C6.35 1.19133 6.3375 1.67769 6.3125 2.13343C6.2875 2.58918 6.23333 3.02792 6.15 3.44966H11.075V4.40877H6.6C7.03333 5.51073 7.65833 6.45284 8.475 7.2351C9.29167 8.01735 10.2417 8.58533 11.325 8.93905C11.1917 9.04789 11.0625 9.16352 10.9375 9.28596C10.8125 9.4084 10.6583 9.57846 10.475 9.79613C9.425 9.41521 8.49167 8.83362 7.675 8.05136C6.85833 7.26911 6.2 6.3202 5.7 5.20463C5.3 6.3338 4.70417 7.26571 3.9125 8.00034C3.12083 8.73498 2.10833 9.33358 0.875 9.79613Z" fill="#3240CB"/>
</svg>
