<svg width="120" height="87" viewBox="0 0 120 87" fill="none" xmlns="http://www.w3.org/2000/svg">
<path d="M113.717 37.9432L102.969 50.7198L68.8977 10.2197L65.314 14.4796L101.177 57.1091C101.672 57.6946 102.321 57.9903 102.968 57.9903C103.618 57.9903 104.264 57.6946 104.76 57.1091L117.3 42.2031L113.717 37.9432Z" fill="url(#paint0_linear_53_230)"/>
<path d="M101.152 23.0387L108.943 32.2977L101.142 23.0248C101.145 23.0297 101.148 23.0347 101.152 23.0387Z" fill="url(#paint1_linear_53_230)"/>
<path d="M119.079 35.8134C119.554 36.3789 119.82 37.144 119.82 37.9427C119.82 38.7416 119.553 39.5075 119.078 40.0723L104.747 57.1067C104.252 57.6941 103.605 57.9888 102.956 57.9888C102.307 57.9888 101.66 57.695 101.165 57.1067L99.3731 54.9774L92.0437 63.6895C85.7386 71.1843 75.8259 71.843 68.8848 65.6672L88.6261 42.2026L85.0434 37.9437L63.3827 63.6895C62.9077 64.254 62.6406 65.0202 62.6406 65.8188C62.6406 66.6178 62.9077 67.3837 63.3827 67.9484C67.8279 73.2312 73.6671 75.8719 79.5055 75.8719C85.3439 75.8719 91.1823 73.2302 95.6267 67.9475L119.079 40.0702C119.554 39.5056 119.821 38.7395 119.821 37.9408C119.821 37.1421 119.554 36.3779 119.079 35.8134Z" fill="url(#paint2_linear_53_230)"/>
<path d="M104.747 57.1088L100.639 61.9958L95.6274 67.9503C91.1822 73.2342 85.3446 75.8727 79.5062 75.8727C75.061 75.8727 70.6114 74.3426 66.7816 71.2734C66.2681 70.8626 65.7657 70.425 65.2757 69.9596C64.622 69.3416 63.9884 68.6708 63.3823 67.9503C62.9081 67.3867 62.6411 66.6196 62.6411 65.8209C62.6411 65.021 62.9081 64.2552 63.3823 63.6916L82.7258 40.7043L85.0449 37.9479L86.7353 39.96L88.626 42.2047L86.3071 44.9614L68.8844 65.6712C69.3911 66.1226 69.9137 66.5364 70.4505 66.9134C77.2539 71.715 86.1985 70.6394 92.0436 63.6916L97.0549 57.7368L99.3738 54.9804L101.164 57.1097C101.659 57.6952 102.308 57.9909 102.955 57.9909C103.605 57.99 104.252 57.6943 104.747 57.1088Z" fill="url(#paint3_linear_53_230)"/>
<path d="M88.6258 42.2026L86.3069 44.9591L68.8842 65.6691L65.2757 69.9587C64.622 69.3405 63.9884 68.6697 63.3823 67.9494C62.9081 67.3858 62.6411 66.6187 62.6411 65.8198C62.6411 65.0202 62.9081 64.2541 63.3823 63.6905L82.7256 40.7032L85.0447 37.9468L86.7351 39.9592L88.6258 42.2026Z" fill="url(#paint4_linear_53_230)"/>
<path d="M119.82 37.9429C119.82 38.7428 119.553 39.5087 119.079 40.0723L117.287 42.2019L92.0464 12.1981C88.6957 8.21511 84.2439 6.02216 79.5065 6.02216C75.6241 6.02216 71.9344 7.49472 68.8849 10.2185L65.3012 14.4784L63.3828 12.1981C62.9089 11.6315 62.6416 10.8675 62.6416 10.0687C62.6416 9.26892 62.9089 8.50287 63.3828 7.93925C67.6895 2.82006 73.4152 0 79.5065 0C85.5953 0 91.321 2.82006 95.6277 7.93925L119.08 35.8136C119.553 36.38 119.82 37.1431 119.82 37.9429Z" fill="url(#paint5_linear_53_230)"/>
<g opacity="0.61">
<path d="M86.7317 39.9577L88.6223 42.2024L86.3035 44.9588L82.7222 40.702L85.0413 37.9456L86.7317 39.9577Z" fill="url(#paint6_linear_53_230)"/>
<path d="M104.751 57.1086L100.642 61.9956L97.0581 57.7357L99.3772 54.979L101.167 57.1086C101.662 57.6941 102.311 57.9898 102.958 57.9898C103.609 57.9898 104.256 57.6941 104.751 57.1086Z" fill="url(#paint7_linear_53_230)"/>
<path d="M70.4785 66.9116L66.8096 71.2727C66.2962 70.862 65.7937 70.4244 65.3037 69.9589L68.9124 65.6693C69.4191 66.1207 69.9417 66.5346 70.4785 66.9116Z" fill="url(#paint8_linear_53_230)"/>
</g>
<path d="M2.51318 42.2031L15.0531 57.1091C15.5482 57.6946 16.1951 57.9903 16.8446 57.9903C17.4915 57.9903 18.141 57.6946 18.636 57.1091L54.4987 14.4796L50.9151 10.2197L16.8437 50.7198L6.09519 37.9432L2.51318 42.2031Z" fill="url(#paint9_linear_53_230)"/>
<path d="M18.6333 23.0387L10.8423 32.2977L18.6433 23.0248C18.6399 23.0297 18.6374 23.0347 18.6333 23.0387Z" fill="url(#paint10_linear_53_230)"/>
<path d="M0.742107 35.8134C0.267122 36.3789 0.000827946 37.144 0.000827946 37.9427C0.000827946 38.7416 0.267962 39.5075 0.742948 40.0723L15.0735 57.1067C15.5685 57.6941 16.2163 57.9888 16.8649 57.9888C17.5135 57.9888 18.1613 57.695 18.6563 57.1067L20.4478 54.9774L27.777 63.6895C34.0821 71.1843 43.9951 71.843 50.9362 65.6672L31.1946 42.2026L34.7775 37.9437L56.4383 63.6895C56.9131 64.254 57.1803 65.0202 57.1803 65.8188C57.1803 66.6178 56.9131 67.3837 56.4383 67.9484C51.9931 73.2312 46.1547 75.8719 40.3154 75.8719C34.477 75.8719 28.6386 73.2302 24.1942 67.9475L0.742107 40.0702C0.267122 39.5056 0 38.7395 0 37.9408C0 37.1421 0.266286 36.3779 0.742107 35.8134Z" fill="url(#paint11_linear_53_230)"/>
<path d="M15.0781 57.1088L19.1869 61.9958L24.1981 67.9503C28.6433 73.2342 34.4809 75.8727 40.3193 75.8727C44.7645 75.8727 49.2139 74.3426 53.0439 71.2734C53.5574 70.8626 54.0598 70.425 54.5498 69.9596C55.2035 69.3416 55.8371 68.6708 56.4432 67.9503C56.9174 67.3867 57.1844 66.6196 57.1844 65.8209C57.1844 65.021 56.9174 64.2552 56.4432 63.6916L37.0997 40.7043L34.7806 37.9479L33.0902 39.96L31.1993 42.2047L33.5184 44.9614L50.9411 65.6712C50.4344 66.1226 49.9118 66.5364 49.375 66.9134C42.5716 71.715 33.627 70.6394 27.7819 63.6916L22.7706 57.7368L20.4516 54.9804L18.6618 57.1097C18.1668 57.6952 17.5173 57.9909 16.8704 57.9909C16.2209 57.99 15.5731 57.6943 15.0781 57.1088Z" fill="url(#paint12_linear_53_230)"/>
<path d="M31.1865 42.2026L33.5056 44.9591L50.9281 65.6691L54.5368 69.9587C55.1905 69.3405 55.824 68.6697 56.4302 67.9494C56.9042 67.3858 57.1714 66.6187 57.1714 65.8198C57.1714 65.0202 56.9042 64.2541 56.4302 63.6905L37.0867 40.7032L34.7678 37.9468L33.0772 39.9592L31.1865 42.2026Z" fill="url(#paint13_linear_53_230)"/>
<path d="M0 37.9429C0 38.7428 0.267128 39.5087 0.741278 40.0723L2.53269 42.2019L27.7737 12.1981C31.1245 8.21511 35.5764 6.02216 40.3136 6.02216C44.197 6.02216 47.8858 7.49472 50.9353 10.2185L54.5189 14.4784L56.4372 12.1981C56.9114 11.6315 57.1784 10.8675 57.1784 10.0687C57.1784 9.26892 56.9114 8.50287 56.4372 7.93925C52.1307 2.82006 46.4049 0 40.3136 0C34.2247 0 28.4991 2.82006 24.1926 7.93925L0.740437 35.8136C0.267122 36.38 0 37.1431 0 37.9429Z" fill="url(#paint14_linear_53_230)"/>
<g opacity="0.61">
<path d="M33.0779 39.958L31.187 42.2024L33.5069 44.959L37.088 40.7022L34.7683 37.9456L33.0779 39.958Z" fill="url(#paint15_linear_53_230)"/>
<path d="M15.0781 57.1088L19.1869 61.9956L22.7706 57.7359L20.4516 54.9792L18.6618 57.1088C18.1668 57.6941 17.5173 57.9898 16.8704 57.9898C16.2209 57.9898 15.5731 57.6941 15.0781 57.1088Z" fill="url(#paint16_linear_53_230)"/>
<path d="M49.3921 66.9116L53.0609 71.2727C53.5744 70.862 54.0769 70.4244 54.5669 69.9589L50.9581 65.6693C50.4515 66.1207 49.9289 66.5346 49.3921 66.9116Z" fill="url(#paint17_linear_53_230)"/>
</g>
<defs>
<linearGradient id="paint0_linear_53_230" x1="65.315" y1="34.105" x2="117.301" y2="34.105" gradientUnits="userSpaceOnUse">
<stop stop-color="#1D7EFF"/>
<stop offset="1" stop-color="#0029A9"/>
</linearGradient>
<linearGradient id="paint1_linear_53_230" x1="101.141" y1="27.6617" x2="108.942" y2="27.6617" gradientUnits="userSpaceOnUse">
<stop stop-color="#1D7EFF"/>
<stop offset="1" stop-color="#0029A9"/>
</linearGradient>
<linearGradient id="paint2_linear_53_230" x1="62.6412" y1="52.3291" x2="119.821" y2="52.3291" gradientUnits="userSpaceOnUse">
<stop stop-color="#1D7EFF"/>
<stop offset="1" stop-color="#0029A9"/>
</linearGradient>
<linearGradient id="paint3_linear_53_230" x1="62.6409" y1="56.9086" x2="104.747" y2="56.9086" gradientUnits="userSpaceOnUse">
<stop stop-color="#1D7EFF"/>
<stop offset="1" stop-color="#0029A9"/>
</linearGradient>
<linearGradient id="paint4_linear_53_230" x1="62.6409" y1="53.9519" x2="88.6258" y2="53.9519" gradientUnits="userSpaceOnUse">
<stop stop-color="#1D7EFF"/>
<stop offset="1" stop-color="#0029A9"/>
</linearGradient>
<linearGradient id="paint5_linear_53_230" x1="100.188" y1="13.3581" x2="79.2066" y2="31.0089" gradientUnits="userSpaceOnUse">
<stop stop-color="#1D7EFF"/>
<stop offset="1" stop-color="#0029A9"/>
</linearGradient>
<linearGradient id="paint6_linear_53_230" x1="86.9577" y1="39.924" x2="84.5865" y2="41.9188" gradientUnits="userSpaceOnUse">
<stop stop-color="#00112D"/>
<stop offset="0.9901" stop-color="#0029A9" stop-opacity="0"/>
</linearGradient>
<linearGradient id="paint7_linear_53_230" x1="101.295" y1="56.9588" x2="98.9244" y2="58.9535" gradientUnits="userSpaceOnUse">
<stop stop-color="#00112D"/>
<stop offset="0.9901" stop-color="#0029A9" stop-opacity="0"/>
</linearGradient>
<linearGradient id="paint8_linear_53_230" x1="67.0975" y1="67.492" x2="69.0276" y2="69.1159" gradientUnits="userSpaceOnUse">
<stop stop-color="#00112D"/>
<stop offset="0.9901" stop-color="#0029A9" stop-opacity="0"/>
</linearGradient>
<linearGradient id="paint9_linear_53_230" x1="54.4995" y1="34.105" x2="2.51343" y2="34.105" gradientUnits="userSpaceOnUse">
<stop stop-color="#1D7EFF"/>
<stop offset="1" stop-color="#0029A9"/>
</linearGradient>
<linearGradient id="paint10_linear_53_230" x1="18.644" y1="27.6617" x2="10.8429" y2="27.6617" gradientUnits="userSpaceOnUse">
<stop stop-color="#1D7EFF"/>
<stop offset="1" stop-color="#0029A9"/>
</linearGradient>
<linearGradient id="paint11_linear_53_230" x1="57.1793" y1="52.3291" x2="-0.000415797" y2="52.3291" gradientUnits="userSpaceOnUse">
<stop stop-color="#1D7EFF"/>
<stop offset="1" stop-color="#0029A9"/>
</linearGradient>
<linearGradient id="paint12_linear_53_230" x1="57.185" y1="56.9086" x2="15.0785" y2="56.9086" gradientUnits="userSpaceOnUse">
<stop stop-color="#1D7EFF"/>
<stop offset="1" stop-color="#0029A9"/>
</linearGradient>
<linearGradient id="paint13_linear_53_230" x1="57.172" y1="53.9519" x2="31.1869" y2="53.9519" gradientUnits="userSpaceOnUse">
<stop stop-color="#1D7EFF"/>
<stop offset="1" stop-color="#0029A9"/>
</linearGradient>
<linearGradient id="paint14_linear_53_230" x1="19.6317" y1="13.3581" x2="40.613" y2="31.0089" gradientUnits="userSpaceOnUse">
<stop stop-color="#1D7EFF"/>
<stop offset="1" stop-color="#0029A9"/>
</linearGradient>
<linearGradient id="paint15_linear_53_230" x1="32.8522" y1="39.9242" x2="35.2232" y2="41.9188" gradientUnits="userSpaceOnUse">
<stop stop-color="#00112D"/>
<stop offset="0.9901" stop-color="#0029A9" stop-opacity="0"/>
</linearGradient>
<linearGradient id="paint16_linear_53_230" x1="18.5339" y1="56.9591" x2="20.9048" y2="58.9537" gradientUnits="userSpaceOnUse">
<stop stop-color="#00112D"/>
<stop offset="0.9901" stop-color="#0029A9" stop-opacity="0"/>
</linearGradient>
<linearGradient id="paint17_linear_53_230" x1="52.7735" y1="67.492" x2="50.8434" y2="69.1159" gradientUnits="userSpaceOnUse">
<stop stop-color="#00112D"/>
<stop offset="0.9901" stop-color="#0029A9" stop-opacity="0"/>
</linearGradient>
</defs>
</svg>
