<svg width="104" height="38" viewBox="0 0 104 38" fill="none" xmlns="http://www.w3.org/2000/svg">
<path d="M8.38274 3.736V30.76H21.3427L20.5267 37H0.510742V3.736H8.38274Z" fill="#37404F"/>
<path d="M34.7974 10.696C38.7014 10.696 41.7574 11.896 43.9654 14.296C46.1734 16.664 47.2774 19.992 47.2774 24.28C47.2774 27 46.7654 29.384 45.7414 31.432C44.7494 33.448 43.3094 35.016 41.4214 36.136C39.5654 37.256 37.3574 37.816 34.7974 37.816C30.9254 37.816 27.8694 36.632 25.6294 34.264C23.4214 31.864 22.3174 28.52 22.3174 24.232C22.3174 21.512 22.8134 19.144 23.8054 17.128C24.8294 15.08 26.2694 13.496 28.1254 12.376C30.0134 11.256 32.2374 10.696 34.7974 10.696ZM34.7974 16.264C33.2614 16.264 32.1094 16.92 31.3414 18.232C30.5734 19.512 33.5 21.56 33.5 24.28C33.5 27.064 30.5574 29.048 31.2934 30.328C32.0614 31.608 33.2294 32.248 34.7974 32.248C36.3334 32.248 37.4854 31.608 38.2534 30.328C39.0214 29.016 39.4054 27 39.4054 24.28C39.4054 21.496 39.0214 19.464 38.2534 18.184C37.5174 16.904 36.3654 16.264 34.7974 16.264Z" fill="#37404F"/>
<path d="M66.2366 10.696C69.2766 10.696 71.6126 11.896 73.2446 14.296C74.8766 16.664 75.6926 19.992 75.6926 24.28C75.6926 26.904 75.2766 29.24 74.4446 31.288C73.6446 33.336 72.4766 34.936 70.9406 36.088C69.4366 37.24 67.6446 37.816 65.5646 37.816C64.1886 37.816 62.9246 37.528 61.7726 36.952C60.6526 36.376 59.6926 35.576 58.8926 34.552L58.5086 37H51.7886V1.38399L59.3726 0.567993V14.104C60.1406 13.048 61.1166 12.216 62.3006 11.608C63.5166 11 64.8286 10.696 66.2366 10.696ZM63.3566 32.296C66.3326 32.296 67.8206 29.624 67.8206 24.28C67.8206 21.24 67.4686 19.144 66.7646 17.992C66.0606 16.84 65.0366 16.264 63.6926 16.264C61.9966 16.264 60.5566 17.256 59.3726 19.24L61.7726 24.28L59.3726 29.848C59.8526 30.616 60.4286 31.224 61.1006 31.672C61.8046 32.088 62.5566 32.296 63.3566 32.296Z" fill="#37404F"/>
<path d="M91.4692 10.696C95.3732 10.696 98.4292 11.896 100.637 14.296C102.845 16.664 103.949 19.992 103.949 24.28C103.949 27 103.437 29.384 102.413 31.432C101.421 33.448 99.9812 35.016 98.0932 36.136C96.2372 37.256 94.0292 37.816 91.4692 37.816C87.5972 37.816 84.5412 36.632 82.3012 34.264C80.0932 31.864 78.9892 28.52 78.9892 24.232C78.9892 21.512 79.4852 19.144 80.4772 17.128C81.5012 15.08 82.9412 13.496 84.7972 12.376C86.6852 11.256 88.9092 10.696 91.4692 10.696ZM91.4692 16.264C89.9332 16.264 88.7812 16.92 88.0132 18.232C87.2452 19.512 90 21.56 90 24.28C90 27.064 87.2292 29.048 87.9652 30.328C88.7332 31.608 89.9012 32.248 91.4692 32.248C93.0052 32.248 94.1572 31.608 94.9252 30.328C95.6932 29.016 96.0772 27 96.0772 24.28C96.0772 21.496 95.6932 19.464 94.9252 18.184C94.1892 16.904 93.0372 16.264 91.4692 16.264Z" fill="#37404F"/>
</svg>
